<?xml version="1.0" ?><svg id="Expanded" viewBox="0 0 64 64" xmlns="http://www.w3.org/2000/svg"><title/><path d="M58.18,31.32a12.37,12.37,0,0,0,.93-4.59,12,12,0,0,0-12-12h-.64a9,9,0,0,0-8.6-6.64,8.7,8.7,0,0,0-6.93,3.3,16.4,16.4,0,0,0-3.49-.34c-.53,0-1.05,0-1.56.07a16.27,16.27,0,0,0-10.36,5l-.11.1c-.23.26-.46.52-.67.79a4.94,4.94,0,0,0-.36.44A6.42,6.42,0,0,0,14,18c-.19.27-.38.54-.55.82,0,.08-.1.16-.14.24a15.71,15.71,0,0,0-2.05,5.6l0,.08c0,.24-.08.47-.11.7a9.23,9.23,0,0,0,1,18.39H54.24a6.93,6.93,0,0,0,3.94-12.51Zm-4,10.51h-42a7.23,7.23,0,0,1-.09-14.45l.91,0,.06-.9a14.41,14.41,0,0,1,28.78,1,14.72,14.72,0,0,1-.66,4.32A1,1,0,0,0,41.83,33a1,1,0,0,0,.29.05,1,1,0,0,0,1-.71,16.68,16.68,0,0,0,.75-4.91,17.15,17.15,0,0,0-.19-2.4,8.86,8.86,0,0,1,3,.81,8,8,0,0,1,3.67,10.63,1,1,0,0,0,.48,1.34,1.07,1.07,0,0,0,.43.09,1,1,0,0,0,.9-.57,10,10,0,0,0-4.63-13.29,10.28,10.28,0,0,0-4.3-1A16.45,16.45,0,0,0,33,12.05a6.77,6.77,0,0,1,4.83-2A7,7,0,0,1,44.69,16l.17,1.09,1.06-.27a4.88,4.88,0,0,1,1.18-.09,10,10,0,0,1,10,10A10.68,10.68,0,0,1,56,31.28l-.39.86.83.45a4.93,4.93,0,0,1-2.25,9.24Z"/><path d="M25.79,46.4A1,1,0,0,0,24.5,47L23,51a1,1,0,0,0,.57,1.29.92.92,0,0,0,.36.07,1,1,0,0,0,.93-.65l1.54-4A1,1,0,0,0,25.79,46.4Z"/><path d="M42.6,46.4a1,1,0,0,0-1.29.57l-1.54,4a1,1,0,0,0,.57,1.29.92.92,0,0,0,.36.07,1,1,0,0,0,.94-.65l1.54-4A1,1,0,0,0,42.6,46.4Z"/><path d="M34.54,46.4a1,1,0,0,0-1.29.58l-2.84,7.58A1,1,0,0,0,31,55.85a1,1,0,0,0,1.29-.59l2.84-7.58A1,1,0,0,0,34.54,46.4Z"/><path d="M17.36,46.39a1,1,0,0,0-1.28.6l-2.72,7.58a1,1,0,0,0,.6,1.28,1,1,0,0,0,.34.06,1,1,0,0,0,.94-.66L18,47.67A1,1,0,0,0,17.36,46.39Z"/><path d="M50.05,46.4a1,1,0,0,0-1.29.58l-2.84,7.58a1,1,0,0,0,.59,1.29,1,1,0,0,0,.35.06,1,1,0,0,0,.93-.65l2.85-7.58A1,1,0,0,0,50.05,46.4Z"/></svg>