<?xml version="1.0" ?><svg width="24px" height="24px" viewBox="0 0 24 24" xmlns="http://www.w3.org/2000/svg"><defs><style>.cls-1{fill:none;}</style></defs><g id="Artwork"><rect class="cls-1" height="24" width="24" y="0.68"/><path d="M23,8.55a2.17,2.17,0,0,1,0,.36,4.81,4.81,0,0,1-1.34,3,5,5,0,0,1-3.3,1.48l-15.62,0a.75.75,0,0,1,0-1.5l15.37,0,.42,0a3.42,3.42,0,0,0,3-3.38,3.49,3.49,0,0,0-.06-.65,3.41,3.41,0,0,0-6.7,0,3.49,3.49,0,0,0-.06.65,3.41,3.41,0,0,0,.11.85l0,.16s0,0,0,0a1.06,1.06,0,0,1,.06.19c0,.05,0,.1,0,.15a.75.75,0,0,1-1.44.29,1.09,1.09,0,0,1-.05-.17v0a4.34,4.34,0,0,1-.16-.62,4.8,4.8,0,0,1-.08-.85,3.49,3.49,0,0,1,0-.65A4.9,4.9,0,0,1,23,8.44.41.41,0,0,1,23,8.55Z"/><path d="M12,6A3.38,3.38,0,0,1,8.76,9.4H2.69a.75.75,0,1,1,0-1.5h6A1.89,1.89,0,1,0,6.7,6a.06.06,0,0,0,0,0V6a.75.75,0,0,1-1.5,0V6A3.4,3.4,0,0,1,12,6Z"/><path d="M16,19.32a3.39,3.39,0,0,1-6.78.16v0a.74.74,0,0,1,.75-.74.73.73,0,0,1,.74.71h0v0a1.89,1.89,0,1,0,2.18-2,1.36,1.36,0,0,0-.29,0l-10,0a.75.75,0,0,1,0-1.5H13.05a3.39,3.39,0,0,1,3,3.37Z"/></g></svg>